<svg width="427" height="427" viewBox="0 0 427 427" fill="none" xmlns="http://www.w3.org/2000/svg">
<mask id="path-1-inside-1_55195_2968" fill="white">
<path d="M426.887 213.566C426.887 331.442 331.329 427 213.454 427C95.5776 427 0.0202332 331.442 0.0202332 213.566C0.0202332 95.6903 95.5776 0.132935 213.454 0.132935C331.329 0.132935 426.887 95.6903 426.887 213.566ZM6.44412 213.566C6.44412 327.894 99.1254 420.576 213.454 420.576C327.782 420.576 420.463 327.894 420.463 213.566C420.463 99.2381 327.782 6.55682 213.454 6.55682C99.1254 6.55682 6.44412 99.2381 6.44412 213.566Z"/>
</mask>
<path d="M426.887 213.566C426.887 331.442 331.329 427 213.454 427C95.5776 427 0.0202332 331.442 0.0202332 213.566C0.0202332 95.6903 95.5776 0.132935 213.454 0.132935C331.329 0.132935 426.887 95.6903 426.887 213.566ZM6.44412 213.566C6.44412 327.894 99.1254 420.576 213.454 420.576C327.782 420.576 420.463 327.894 420.463 213.566C420.463 99.2381 327.782 6.55682 213.454 6.55682C99.1254 6.55682 6.44412 99.2381 6.44412 213.566Z" stroke="#C11E2B" stroke-width="1.39499" stroke-dasharray="59.98 59.98" mask="url(#path-1-inside-1_55195_2968)"/>
</svg>
