<svg width="1230" height="57" viewBox="0 0 1230 57" fill="none" xmlns="http://www.w3.org/2000/svg">
<g clip-path="url(#clip0_55195_2995)">
<g clip-path="url(#clip1_55195_2995)">
<g clip-path="url(#clip2_55195_2995)">
<path d="M28.2197 1.16406C28.1908 1.06691 28.1007 1 28 1C27.8993 1 27.8092 1.06788 27.7803 1.16504M28.2197 1.16406L28.6992 1.02148M28.2197 1.16406L28.2236 1.17676C28.2261 1.18501 28.2295 1.1976 28.2344 1.21387C28.2441 1.24634 28.2586 1.29448 28.2773 1.35742C28.315 1.48364 28.3707 1.66934 28.4414 1.90625C28.5827 2.37998 28.7848 3.05966 29.0303 3.88281C29.5214 5.52955 30.1846 7.75142 30.8701 10.0508C33.1029 17.5392 38.9608 23.3971 46.4492 25.6299C48.7486 26.3154 50.9705 26.9786 52.6172 27.4697C53.4403 27.7152 54.12 27.9173 54.5938 28.0586C54.8307 28.1293 55.0164 28.185 55.1426 28.2227C55.2055 28.2414 55.2537 28.2559 55.2861 28.2656C55.3024 28.2705 55.315 28.2739 55.3232 28.2764L55.335 28.2803M55.335 28.2803L55.4785 27.8008M55.335 28.2803C55.4322 28.3092 55.5 28.3993 55.5 28.5C55.5 28.6007 55.4331 28.6908 55.3359 28.7197L55.3232 28.7236C55.315 28.7261 55.3024 28.7295 55.2861 28.7344C55.2537 28.7441 55.2055 28.7586 55.1426 28.7773C55.0164 28.815 54.8307 28.8707 54.5938 28.9414C54.12 29.0827 53.4403 29.2848 52.6172 29.5303C50.9705 30.0214 48.7486 30.6846 46.4492 31.3701C38.9608 33.6029 33.1029 39.4608 30.8701 46.9492C30.1846 49.2486 29.5214 51.4705 29.0303 53.1172C28.7848 53.9403 28.5827 54.62 28.4414 55.0938C28.3707 55.3307 28.315 55.5164 28.2773 55.6426C28.2586 55.7055 28.2441 55.7537 28.2344 55.7861C28.2295 55.8024 28.2261 55.815 28.2236 55.8232L28.2197 55.835C28.1908 55.9322 28.1007 56 28 56C27.8993 56 27.8092 55.9331 27.7803 55.8359M27.7803 55.8359L27.3008 55.9785M27.7803 55.8359L27.7764 55.8232C27.7739 55.815 27.7705 55.8024 27.7656 55.7861C27.7559 55.7537 27.7414 55.7055 27.7227 55.6426C27.685 55.5164 27.6293 55.3307 27.5586 55.0938C27.4173 54.62 27.2152 53.9403 26.9697 53.1172C26.4786 51.4705 25.8154 49.2486 25.1299 46.9492C22.8971 39.4608 17.0392 33.6029 9.55078 31.3701C7.25143 30.6846 5.02955 30.0214 3.38281 29.5303C2.55966 29.2848 1.87998 29.0827 1.40625 28.9414C1.16934 28.8707 0.983643 28.815 0.857422 28.7773C0.794483 28.7586 0.746336 28.7441 0.713867 28.7344C0.697604 28.7295 0.68501 28.7261 0.676758 28.7236L0.665039 28.7197M0.665039 28.7197L0.521484 29.1992M0.665039 28.7197C0.567876 28.6908 0.5 28.6007 0.5 28.5C0.500003 28.3993 0.566897 28.3092 0.664062 28.2803M0.664062 28.2803L0.521484 27.8008M0.664062 28.2803L0.676758 28.2764C0.68501 28.2739 0.697604 28.2705 0.713867 28.2656C0.746337 28.2559 0.794484 28.2414 0.857422 28.2227C0.983643 28.185 1.16934 28.1293 1.40625 28.0586C1.87998 27.9173 2.55966 27.7152 3.38281 27.4697C5.02955 26.9786 7.25143 26.3154 9.55078 25.6299C17.0392 23.3971 22.8971 17.5392 25.1299 10.0508C25.8154 7.75142 26.4786 5.52955 26.9697 3.88281C27.2152 3.05966 27.4173 2.37998 27.5586 1.90625C27.6293 1.66934 27.685 1.48364 27.7227 1.35742C27.7414 1.29448 27.7559 1.24634 27.7656 1.21387C27.7705 1.1976 27.7739 1.18501 27.7764 1.17676L27.7803 1.16504M27.7803 1.16504L27.3008 1.02148" stroke="#14121A"/>
</g>
</g>
</g>
<g clip-path="url(#clip3_55195_2995)">
<g clip-path="url(#clip4_55195_2995)">
<g clip-path="url(#clip5_55195_2995)">
<path d="M615.22 1.16406C615.191 1.06691 615.101 1 615 1C614.899 1 614.809 1.06788 614.78 1.16504M615.22 1.16406L615.699 1.02148M615.22 1.16406L615.224 1.17676C615.226 1.18501 615.229 1.1976 615.234 1.21387C615.244 1.24634 615.259 1.29448 615.277 1.35742C615.315 1.48364 615.371 1.66934 615.441 1.90625C615.583 2.37998 615.785 3.05966 616.03 3.88281C616.521 5.52955 617.185 7.75142 617.87 10.0508C620.103 17.5392 625.961 23.3971 633.449 25.6299C635.749 26.3154 637.97 26.9786 639.617 27.4697C640.44 27.7152 641.12 27.9173 641.594 28.0586C641.831 28.1293 642.016 28.185 642.143 28.2227C642.206 28.2414 642.254 28.2559 642.286 28.2656C642.302 28.2705 642.315 28.2739 642.323 28.2764L642.335 28.2803M642.335 28.2803L642.479 27.8008M642.335 28.2803C642.432 28.3092 642.5 28.3993 642.5 28.5C642.5 28.6007 642.433 28.6908 642.336 28.7197L642.323 28.7236C642.315 28.7261 642.302 28.7295 642.286 28.7344C642.254 28.7441 642.206 28.7586 642.143 28.7773C642.016 28.815 641.831 28.8707 641.594 28.9414C641.12 29.0827 640.44 29.2848 639.617 29.5303C637.97 30.0214 635.749 30.6846 633.449 31.3701C625.961 33.6029 620.103 39.4608 617.87 46.9492C617.185 49.2486 616.521 51.4705 616.03 53.1172C615.785 53.9403 615.583 54.62 615.441 55.0938C615.371 55.3307 615.315 55.5164 615.277 55.6426C615.259 55.7055 615.244 55.7537 615.234 55.7861C615.229 55.8024 615.226 55.815 615.224 55.8232L615.22 55.835C615.191 55.9322 615.101 56 615 56C614.899 56 614.809 55.9331 614.78 55.8359M614.78 55.8359L614.301 55.9785M614.78 55.8359L614.776 55.8232C614.774 55.815 614.771 55.8024 614.766 55.7861C614.756 55.7537 614.741 55.7055 614.723 55.6426C614.685 55.5164 614.629 55.3307 614.559 55.0938C614.417 54.62 614.215 53.9403 613.97 53.1172C613.479 51.4705 612.815 49.2486 612.13 46.9492C609.897 39.4608 604.039 33.6029 596.551 31.3701C594.251 30.6846 592.03 30.0214 590.383 29.5303C589.56 29.2848 588.88 29.0827 588.406 28.9414C588.169 28.8707 587.984 28.815 587.857 28.7773C587.794 28.7586 587.746 28.7441 587.714 28.7344C587.698 28.7295 587.685 28.7261 587.677 28.7236L587.665 28.7197M587.665 28.7197L587.521 29.1992M587.665 28.7197C587.568 28.6908 587.5 28.6007 587.5 28.5C587.5 28.3993 587.567 28.3092 587.664 28.2803M587.664 28.2803L587.521 27.8008M587.664 28.2803L587.677 28.2764C587.685 28.2739 587.698 28.2705 587.714 28.2656C587.746 28.2559 587.794 28.2414 587.857 28.2227C587.984 28.185 588.169 28.1293 588.406 28.0586C588.88 27.9173 589.56 27.7152 590.383 27.4697C592.03 26.9786 594.251 26.3154 596.551 25.6299C604.039 23.3971 609.897 17.5392 612.13 10.0508C612.815 7.75142 613.479 5.52955 613.97 3.88281C614.215 3.05966 614.417 2.37998 614.559 1.90625C614.629 1.66934 614.685 1.48364 614.723 1.35742C614.741 1.29448 614.756 1.24634 614.766 1.21387C614.771 1.1976 614.774 1.18501 614.776 1.17676L614.78 1.16504M614.78 1.16504L614.301 1.02148" stroke="#14121A"/>
</g>
</g>
</g>
<g clip-path="url(#clip6_55195_2995)">
<g clip-path="url(#clip7_55195_2995)">
<g clip-path="url(#clip8_55195_2995)">
<path d="M1202.22 1.16406C1202.19 1.06691 1202.1 1 1202 1C1201.9 1 1201.81 1.06788 1201.78 1.16504M1202.22 1.16406L1202.7 1.02148M1202.22 1.16406L1202.22 1.17676C1202.23 1.18501 1202.23 1.1976 1202.23 1.21387C1202.24 1.24634 1202.26 1.29448 1202.28 1.35742C1202.31 1.48364 1202.37 1.66934 1202.44 1.90625C1202.58 2.37998 1202.78 3.05966 1203.03 3.88281C1203.52 5.52955 1204.18 7.75142 1204.87 10.0508C1207.1 17.5392 1212.96 23.3971 1220.45 25.6299C1222.75 26.3154 1224.97 26.9786 1226.62 27.4697C1227.44 27.7152 1228.12 27.9173 1228.59 28.0586C1228.83 28.1293 1229.02 28.185 1229.14 28.2227C1229.21 28.2414 1229.25 28.2559 1229.29 28.2656C1229.3 28.2705 1229.32 28.2739 1229.32 28.2764L1229.33 28.2803M1229.33 28.2803L1229.48 27.8008M1229.33 28.2803C1229.43 28.3092 1229.5 28.3993 1229.5 28.5C1229.5 28.6007 1229.43 28.6908 1229.34 28.7197L1229.32 28.7236C1229.32 28.7261 1229.3 28.7295 1229.29 28.7344C1229.25 28.7441 1229.21 28.7586 1229.14 28.7773C1229.02 28.815 1228.83 28.8707 1228.59 28.9414C1228.12 29.0827 1227.44 29.2848 1226.62 29.5303C1224.97 30.0214 1222.75 30.6846 1220.45 31.3701C1212.96 33.6029 1207.1 39.4608 1204.87 46.9492C1204.18 49.2486 1203.52 51.4705 1203.03 53.1172C1202.78 53.9403 1202.58 54.62 1202.44 55.0938C1202.37 55.3307 1202.31 55.5164 1202.28 55.6426C1202.26 55.7055 1202.24 55.7537 1202.23 55.7861C1202.23 55.8024 1202.23 55.815 1202.22 55.8232L1202.22 55.835C1202.19 55.9322 1202.1 56 1202 56C1201.9 56 1201.81 55.9331 1201.78 55.8359M1201.78 55.8359L1201.3 55.9785M1201.78 55.8359L1201.78 55.8232C1201.77 55.815 1201.77 55.8024 1201.77 55.7861C1201.76 55.7537 1201.74 55.7055 1201.72 55.6426C1201.69 55.5164 1201.63 55.3307 1201.56 55.0938C1201.42 54.62 1201.22 53.9403 1200.97 53.1172C1200.48 51.4705 1199.82 49.2486 1199.13 46.9492C1196.9 39.4608 1191.04 33.6029 1183.55 31.3701C1181.25 30.6846 1179.03 30.0214 1177.38 29.5303C1176.56 29.2848 1175.88 29.0827 1175.41 28.9414C1175.17 28.8707 1174.98 28.815 1174.86 28.7773C1174.79 28.7586 1174.75 28.7441 1174.71 28.7344C1174.7 28.7295 1174.69 28.7261 1174.68 28.7236L1174.67 28.7197M1174.67 28.7197L1174.52 29.1992M1174.67 28.7197C1174.57 28.6908 1174.5 28.6007 1174.5 28.5C1174.5 28.3993 1174.57 28.3092 1174.66 28.2803M1174.66 28.2803L1174.52 27.8008M1174.66 28.2803L1174.68 28.2764C1174.69 28.2739 1174.7 28.2705 1174.71 28.2656C1174.75 28.2559 1174.79 28.2414 1174.86 28.2227C1174.98 28.185 1175.17 28.1293 1175.41 28.0586C1175.88 27.9173 1176.56 27.7152 1177.38 27.4697C1179.03 26.9786 1181.25 26.3154 1183.55 25.6299C1191.04 23.3971 1196.9 17.5392 1199.13 10.0508C1199.82 7.75142 1200.48 5.52955 1200.97 3.88281C1201.22 3.05966 1201.42 2.37998 1201.56 1.90625C1201.63 1.66934 1201.69 1.48364 1201.72 1.35742C1201.74 1.29448 1201.76 1.24634 1201.77 1.21387C1201.77 1.1976 1201.77 1.18501 1201.78 1.17676L1201.78 1.16504M1201.78 1.16504L1201.3 1.02148" stroke="#14121A"/>
</g>
</g>
</g>
<defs>
<clipPath id="clip0_55195_2995">
<rect width="56" height="57" fill="white"/>
</clipPath>
<clipPath id="clip1_55195_2995">
<rect width="56" height="57" fill="white"/>
</clipPath>
<clipPath id="clip2_55195_2995">
<rect width="56" height="57" fill="white"/>
</clipPath>
<clipPath id="clip3_55195_2995">
<rect width="56" height="57" fill="white" transform="translate(587)"/>
</clipPath>
<clipPath id="clip4_55195_2995">
<rect width="56" height="57" fill="white" transform="translate(587)"/>
</clipPath>
<clipPath id="clip5_55195_2995">
<rect width="56" height="57" fill="white" transform="translate(587)"/>
</clipPath>
<clipPath id="clip6_55195_2995">
<rect width="56" height="57" fill="white" transform="translate(1174)"/>
</clipPath>
<clipPath id="clip7_55195_2995">
<rect width="56" height="57" fill="white" transform="translate(1174)"/>
</clipPath>
<clipPath id="clip8_55195_2995">
<rect width="56" height="57" fill="white" transform="translate(1174)"/>
</clipPath>
</defs>
</svg>
